<svg width="466" height="500" viewBox="0 0 466 500" fill="none" xmlns="http://www.w3.org/2000/svg">
<path fill-rule="evenodd" clip-rule="evenodd" d="M170.832 308.468H233.045H294.585L323.842 381.384H377.983L233.045 55.4435L87.4339 381.384H141.912L170.832 308.468ZM275.417 263.441H233.045H190.673L233.045 161.626L275.417 263.441Z" fill="white"/>
<path fill-rule="evenodd" clip-rule="evenodd" d="M233.045 0L0 82.9973L35.6461 390.793L233.045 500V308.468H170.832L141.912 381.384H87.4339L233.045 55.4435V0Z" fill="#DD0031"/>
<path fill-rule="evenodd" clip-rule="evenodd" d="M233.045 263.441H190.673L233.045 161.626V263.441Z" fill="#DD0031"/>
<path d="M275.417 263.441L233.045 161.626V263.441H275.417Z" fill="#C3002F"/>
<path d="M323.842 381.384L294.585 308.468H233.045V500L430.444 390.793L465.753 82.9973L233.045 0V55.4435L377.983 381.384H323.842Z" fill="#C3002F"/>
</svg>
