<svg width="442" height="482" viewBox="0 0 442 482" fill="none" xmlns="http://www.w3.org/2000/svg">
<path fill-rule="evenodd" clip-rule="evenodd" d="M336.72 192.742H349.057V216.689H371.553V192.742H383.89V216.689H407.837V229.026H383.89V251.522H407.837V263.859H383.89V287.081H371.553V263.859H349.057V287.081H336.72V263.859H313.498V251.522H336.72V229.026H313.498V216.689H336.72V192.742ZM349.057 229.026H371.553V251.522H349.057V229.026Z" fill="white"/>
<path fill-rule="evenodd" clip-rule="evenodd" d="M441.219 361.827V119.447L363.745 162.007L292.381 201.21L220.61 240.637L292.687 280.232L363.745 319.267L441.219 361.827ZM349.057 192.742H336.72V216.689H313.498V229.026H336.72V251.522H313.498V263.859H336.72V287.081H349.057V263.859H371.553V287.081H383.89V263.859H407.837V251.522H383.89V229.026H407.837V216.689H383.89V192.742H371.553V216.689H349.057V192.742Z" fill="#390091"/>
<path d="M57.3295 240.637C57.3295 150.46 130.432 77.357 220.61 77.357C282.281 77.357 335.966 111.547 363.745 162.007L441.219 119.447L250.799 8.57762C232.139 -2.28709 209.08 -2.28709 190.42 8.57762L29.8102 102.09C11.3532 112.837 0 132.584 0 153.942V361.827L77.4746 319.267C64.6345 295.943 57.3295 269.143 57.3295 240.637Z" fill="#A179DC"/>
<path d="M137.881 241C137.881 195.511 174.757 158.634 220.247 158.634C251.305 158.634 278.349 175.825 292.381 201.21L363.745 162.007C335.966 111.547 282.281 77.357 220.61 77.357C130.432 77.357 57.3295 150.46 57.3295 240.637C57.3295 269.143 64.6345 295.943 77.4746 319.267C105.253 369.727 158.939 403.917 220.61 403.917C282.281 403.917 335.966 369.727 363.745 319.267L292.687 280.232C278.744 305.923 251.532 323.366 220.247 323.366C189.086 323.366 161.967 306.062 147.974 280.539C141.54 268.803 137.881 255.329 137.881 241Z" fill="white"/>
<path d="M220.247 158.634C174.757 158.634 137.881 195.511 137.881 241C137.881 255.329 141.54 268.803 147.974 280.539L220.61 240.637L292.381 201.21C278.349 175.825 251.305 158.634 220.247 158.634Z" fill="#A179DC"/>
<path d="M220.61 240.637L147.974 280.539C161.967 306.062 189.086 323.366 220.247 323.366C251.532 323.366 278.744 305.923 292.687 280.232L220.61 240.637Z" fill="#280068"/>
<path d="M0 361.827L190.293 473.249C209.017 484.212 232.202 484.212 250.927 473.249L441.219 361.827L363.745 319.267C335.966 369.727 282.281 403.917 220.61 403.917C158.939 403.917 105.253 369.727 77.4746 319.267L0 361.827Z" fill="#280068"/>
<path d="M371.553 229.026H349.057V251.522H371.553V229.026Z" fill="#390091"/>
</svg>
