<svg width="497" height="516" viewBox="0 0 497 516" fill="none" xmlns="http://www.w3.org/2000/svg">
<path d="M196.112 33.9375C127.961 7.51163 -4.87073 -9.45651 9.00833 134.078C29.9148 274.098 64.715 337.066 79.5017 351.048C90.848 362.98 109.807 376.522 131.768 351.048L175.689 299.24C150.372 280.299 145.14 249.626 146.921 231.143C147.653 225.799 149.117 209.885 149.117 188.979C147.548 178.278 146.846 168.021 146.856 158.234C146.921 93.4661 178.179 49.327 196.112 33.9375Z" fill="#336791"/>
<path fill-rule="evenodd" clip-rule="evenodd" d="M149.117 188.979C149.117 209.885 147.653 225.799 146.921 231.143C145.14 249.626 150.372 280.299 175.689 299.24C191.636 308.295 201.907 309.901 215.218 312.215C220.269 265.597 256.064 238.171 237.178 165.481C225.193 119.353 173.45 141.105 146.856 158.234C146.846 168.021 147.548 178.278 149.117 188.979ZM208.939 165.481C202.047 163.133 198.777 163.102 193.347 163.92C194.187 167.653 195.972 167.528 199.496 170.728C204.825 168.493 206.369 168.772 208.939 165.481Z" fill="#336791"/>
<path d="M220.269 313.113C224.269 313.849 228.656 314.5 233.445 315.911C246.76 319.833 249.887 328.509 250.443 347.754C251.069 369.455 248.424 404.594 253.429 461.509C257.89 512.238 319.53 523.877 360.816 484.348C377.287 468.579 380.361 400.898 384.534 371.691C384.73 363.227 385.096 356.221 385.622 350.389C388.841 314.699 398.047 322.99 410.922 310.201C411.843 309.286 412.783 308.263 413.741 307.109C409.951 301.645 405.479 294.925 400.679 287.362C378.411 252.277 349.091 199.057 348.079 168.995C346.849 132.453 393.075 132.687 416.341 137.372C415.906 134.002 415.083 130.571 413.741 127.05C396.243 73.706 353.465 35.0865 306.574 19.9717C268.721 7.77018 228.188 10.8858 196.112 33.9375C178.179 49.327 146.921 93.4661 146.856 158.234C173.45 141.105 225.193 119.353 237.178 165.481C256.064 238.171 220.269 265.597 215.218 312.215C216.85 312.499 218.529 312.793 220.269 313.113Z" fill="#336791"/>
<path d="M233.445 315.911C228.656 314.5 224.269 313.849 220.269 313.113C202.261 355.22 169.101 346.875 153.728 360.491C184.034 383.989 229.492 377.84 250.443 347.754C249.887 328.509 246.76 319.833 233.445 315.911Z" fill="#336791"/>
<path d="M489.066 318.107C466.886 315.033 438.117 328.648 410.922 310.201C398.047 322.99 388.841 314.699 385.622 350.389C441.851 360.271 479.842 344.899 489.066 318.107Z" fill="#336791"/>
<path fill-rule="evenodd" clip-rule="evenodd" d="M408.251 277.041C417.387 265.621 413.522 218.406 410.447 196.226C407.816 175.176 418.921 157.375 416.341 137.372C393.075 132.687 346.849 132.453 348.079 168.995C349.091 199.057 378.411 252.277 400.679 287.362L408.251 277.041ZM387.828 157.575C382.156 156.79 379.254 157.328 374.432 159.552C377.032 161.825 378.746 162.245 381.988 162.383C384.886 160.994 386.299 160.049 387.828 157.575Z" fill="#336791"/>
<path d="M306.574 19.9717C353.465 35.0865 396.243 73.706 413.741 127.05C415.083 130.571 415.906 134.002 416.341 137.372C418.921 157.375 407.816 175.176 410.447 196.226C413.522 218.406 417.387 265.621 408.251 277.041L400.679 287.362C405.479 294.925 409.951 301.645 413.741 307.109C416.789 303.434 420.019 298.426 423.404 291.315C450.315 234.773 505.097 117.168 484.454 68.1961C458.804 17.2476 379.483 -8.88551 306.574 19.9717Z" fill="#336791"/>
<path d="M9.00833 134.078L1.54315 134.799L1.56186 134.993L1.59056 135.185L9.00833 134.078ZM79.5017 351.048L84.9367 345.88L84.7994 345.735L84.6546 345.598L79.5017 351.048ZM131.768 351.048L137.448 355.945L137.469 355.921L137.489 355.898L131.768 351.048ZM149.117 188.979H156.617V188.432L156.537 187.891L149.117 188.979ZM146.921 231.143L139.49 230.125L139.47 230.274L139.455 230.424L146.921 231.143ZM233.445 315.911L235.564 308.717L235.564 308.717L233.445 315.911ZM153.728 360.491L148.756 354.876C147.084 356.357 146.159 358.504 146.232 360.736C146.305 362.967 147.368 365.05 149.133 366.418L153.728 360.491ZM146.856 158.234L139.356 158.227L146.856 158.234ZM237.178 165.481L244.437 163.595L237.178 165.481ZM253.429 461.509L260.9 460.852L253.429 461.509ZM360.816 484.348L355.629 478.931L360.816 484.348ZM413.741 127.05L406.615 129.388L406.67 129.556L406.733 129.722L413.741 127.05ZM306.574 19.9717L304.273 27.11L306.574 19.9717ZM484.454 68.1961L491.365 65.2829L491.267 65.0496L491.153 64.8235L484.454 68.1961ZM423.404 291.315L430.176 294.538L430.176 294.538L423.404 291.315ZM384.534 371.691L391.958 372.751L392.021 372.31L392.032 371.865L384.534 371.691ZM410.447 196.226L403.005 197.156L403.011 197.206L403.018 197.256L410.447 196.226ZM408.251 277.041L402.395 272.356L402.297 272.478L402.204 272.604L408.251 277.041ZM416.341 137.372L423.779 136.412L416.341 137.372ZM348.079 168.995L340.583 169.247L348.079 168.995ZM413.741 307.109L419.513 311.897L413.741 307.109ZM410.922 310.201L405.637 304.88L405.637 304.88L410.922 310.201ZM489.066 318.107L496.157 320.548C496.887 318.428 496.63 316.093 495.457 314.182C494.283 312.271 492.317 310.986 490.096 310.678L489.066 318.107ZM385.622 350.389L378.152 349.715L385.622 350.389ZM193.347 163.92L192.23 156.503C190.171 156.814 188.333 157.966 187.157 159.685C185.981 161.404 185.573 163.534 186.03 165.566L193.347 163.92ZM208.939 165.481L214.85 170.097C216.345 168.183 216.82 165.665 216.126 163.338C215.433 161.012 213.655 159.165 211.357 158.382L208.939 165.481ZM199.496 170.728L194.454 176.28C196.611 178.239 199.709 178.771 202.397 177.644L199.496 170.728ZM374.432 159.552L371.291 152.741C368.983 153.806 367.371 155.967 367.008 158.482C366.646 160.998 367.582 163.526 369.496 165.199L374.432 159.552ZM387.828 157.575L394.207 161.519C395.541 159.362 395.694 156.677 394.614 154.383C393.535 152.088 391.369 150.494 388.857 150.146L387.828 157.575ZM381.988 162.383L381.67 169.876C382.898 169.928 384.12 169.678 385.228 169.147L381.988 162.383ZM198.824 26.9448C164.182 13.5125 112.152 2.03297 69.912 13.0138C48.5181 18.5755 29.2801 30.0092 16.4763 50.1354C3.73563 70.1626 -2.02975 97.8493 1.54315 134.799L16.4735 133.356C13.1069 98.5388 18.7409 74.5213 29.1324 58.1868C39.4609 41.9514 55.0879 32.3661 73.686 27.5313C111.43 17.7191 159.891 27.9367 193.401 40.9302L198.824 26.9448ZM1.59056 135.185C12.1069 205.618 26.1492 256.893 39.5301 292.468C52.786 327.71 65.6685 348.29 74.3489 356.497L84.6546 345.598C78.5482 339.824 66.6373 321.929 53.5698 287.187C40.6273 252.777 26.8163 202.558 16.4261 132.97L1.59056 135.185ZM74.0667 356.216C79.9665 362.42 88.9239 370.289 100.254 372.443C112.467 374.765 125.222 370.128 137.448 355.945L126.087 346.151C116.354 357.442 108.648 358.77 103.055 357.707C96.5786 356.476 90.3833 351.607 84.9367 345.88L74.0667 356.216ZM141.617 188.979C141.617 209.598 140.169 225.168 139.49 230.125L154.351 232.161C155.136 226.431 156.617 210.173 156.617 188.979H141.617ZM139.455 230.424C137.523 250.475 143.064 284.197 171.196 305.246L180.182 293.235C157.68 276.4 152.756 248.777 154.386 231.863L139.455 230.424ZM137.489 355.898L181.41 304.09L169.968 294.39L126.047 346.198L137.489 355.898ZM218.912 320.489C223.205 321.279 227.025 321.838 231.326 323.105L235.564 308.717C230.286 307.162 225.334 306.419 221.626 305.737L218.912 320.489ZM158.701 366.105C161.317 363.789 165.004 362.137 170.38 360.403C175.283 358.822 182.27 357.005 188.745 354.47C202.748 348.988 217.241 339.267 227.165 316.062L213.373 310.164C205.289 329.066 194.198 336.226 183.276 340.502C177.288 342.847 171.977 344.128 165.776 346.127C160.049 347.974 153.826 350.385 148.756 354.876L158.701 366.105ZM191.228 28.2459C171.76 44.9522 139.423 91.1151 139.356 158.227L154.356 158.242C154.418 95.817 184.598 53.7018 200.996 39.6291L191.228 28.2459ZM139.356 158.227C139.346 168.379 140.074 179.002 141.696 190.067L156.537 187.891C155.022 177.555 154.346 167.663 154.356 158.242L139.356 158.227ZM150.917 164.539C163.854 156.207 182.246 147.232 198.257 145.597C206.155 144.791 212.783 145.84 217.884 148.907C222.822 151.876 227.31 157.324 229.919 167.367L244.437 163.595C241.054 150.575 234.58 141.443 225.614 136.052C216.812 130.76 206.595 129.668 196.734 130.675C177.229 132.666 156.452 143.132 142.795 151.929L150.917 164.539ZM171.986 305.763C189.118 315.489 200.468 317.263 213.933 319.604L216.502 304.826C203.346 302.539 194.154 301.1 179.392 292.718L171.986 305.763ZM213.933 319.604C215.56 319.887 217.209 320.176 218.912 320.489L221.626 305.737C219.848 305.41 218.141 305.11 216.502 304.826L213.933 319.604ZM229.919 167.367C238.937 202.075 234.904 225.614 228.056 246.264C224.458 257.112 220.399 266.363 216.396 277.256C212.532 287.772 209.119 298.88 207.762 311.407L222.674 313.023C223.842 302.241 226.798 292.439 230.476 282.43C234.015 272.797 238.671 261.908 242.293 250.986C249.884 228.096 254.306 201.577 244.437 163.595L229.919 167.367ZM231.326 323.105C236.469 324.62 238.629 326.64 240.011 329.423C241.734 332.891 242.67 338.402 242.946 347.97L257.939 347.537C257.66 337.861 256.754 329.411 253.446 322.75C249.797 315.403 243.736 311.124 235.564 308.717L231.326 323.105ZM242.946 347.97C243.545 368.726 240.938 405.078 245.958 462.166L260.9 460.852C255.911 404.111 258.593 370.183 257.939 347.537L242.946 347.97ZM149.133 366.418C182.606 392.372 233.034 385.878 256.597 352.04L244.288 343.468C225.95 369.801 185.462 375.605 158.324 354.564L149.133 366.418ZM245.958 462.166C248.5 491.068 267.667 509.199 291.814 514.124C315.615 518.979 343.785 511.038 366.003 489.766L355.629 478.931C336.561 497.188 313.268 503.192 294.812 499.427C276.703 495.733 262.82 482.679 260.9 460.852L245.958 462.166ZM200.489 40.0279C230.257 18.6348 268.208 15.4849 304.273 27.11L308.875 12.8334C269.234 0.0554645 226.119 3.13689 191.735 27.8471L200.489 40.0279ZM304.273 27.11C349.007 41.5297 389.906 78.448 406.615 129.388L420.868 124.713C402.581 68.964 357.922 28.6432 308.875 12.8334L304.273 27.11ZM309.334 26.9453C344.216 13.139 380.569 12.5198 411.153 21.3617C441.829 30.2302 466.091 48.4004 477.755 71.5686L491.153 64.8235C477.167 37.0433 448.943 16.6727 415.319 6.95181C381.603 -2.79567 341.84 -2.05287 303.814 12.998L309.334 26.9453ZM477.543 71.1093C481.912 81.4743 482.571 96.3743 479.982 114.719C477.42 132.867 471.824 153.433 464.661 174.503C450.339 216.633 430.092 259.813 416.632 288.092L430.176 294.538C443.628 266.276 464.227 222.382 478.863 179.331C486.179 157.81 492.09 136.259 494.835 116.816C497.552 97.5689 497.318 79.4039 491.365 65.2829L477.543 71.1093ZM403.018 197.256C404.526 208.131 406.225 225.157 406.428 240.766C406.53 248.585 406.253 255.838 405.45 261.697C404.592 267.96 403.298 271.226 402.395 272.356L414.108 281.726C417.772 277.146 419.421 270.227 420.311 263.733C421.257 256.835 421.534 248.756 421.427 240.571C421.213 224.173 419.443 206.501 417.876 195.196L403.018 197.256ZM406.733 129.722C407.857 132.669 408.541 135.524 408.903 138.331L423.779 136.412C423.272 132.481 422.31 128.472 420.749 124.378L406.733 129.722ZM408.903 138.331C409.997 146.816 408.227 154.977 406.053 164.782C403.958 174.227 401.506 185.16 403.005 197.156L417.889 195.296C416.757 186.241 418.542 177.749 420.697 168.03C422.773 158.671 425.265 147.931 423.779 136.412L408.903 138.331ZM417.822 130.019C405.584 127.555 386.916 126.138 371.041 130.49C363.031 132.686 355.17 136.506 349.371 142.971C343.421 149.604 340.218 158.386 340.583 169.247L355.575 168.743C355.326 161.332 357.439 156.441 360.537 152.987C363.787 149.364 368.706 146.684 375.007 144.956C387.754 141.461 403.832 142.503 414.861 144.724L417.822 130.019ZM416.632 288.092C413.453 294.771 410.538 299.223 407.969 302.32L419.513 311.897C423.041 307.645 426.586 302.08 430.176 294.538L416.632 288.092ZM340.583 169.247C341.146 185.975 349.378 208.033 359.64 229.526C370.051 251.333 383.113 273.682 394.347 291.381L407.011 283.343C395.976 265.957 383.245 244.154 373.176 223.064C362.958 201.66 356.024 182.077 355.575 168.743L340.583 169.247ZM394.347 291.381C399.196 299.023 403.725 305.828 407.579 311.384L419.904 302.834C416.176 297.461 411.761 290.827 407.011 283.343L394.347 291.381ZM402.204 272.604L394.632 282.926L406.726 291.799L414.298 281.477L402.204 272.604ZM407.969 302.32C407.161 303.293 406.384 304.138 405.637 304.88L416.208 315.522C417.303 314.434 418.405 313.233 419.513 311.897L407.969 302.32ZM406.712 316.408C422.247 326.945 438.153 328.162 452.275 327.408C459.103 327.043 466.163 326.158 471.988 325.639C478.118 325.093 483.372 324.89 488.036 325.536L490.096 310.678C483.669 309.787 477.01 310.133 470.658 310.698C464.001 311.291 458.01 312.08 451.475 312.429C438.868 313.103 426.793 311.904 415.132 303.994L406.712 316.408ZM405.637 304.88C403.076 307.424 400.714 308.928 398.229 310.368C395.925 311.703 392.493 313.489 389.56 316.2C383.045 322.223 379.785 331.612 378.152 349.715L393.092 351.063C394.678 333.476 397.631 329.166 399.742 327.215C401.123 325.939 402.607 325.168 405.751 323.346C408.714 321.628 412.331 319.373 416.208 315.522L405.637 304.88ZM378.152 349.715C377.607 355.761 377.234 362.942 377.036 371.517L392.032 371.865C392.225 363.511 392.585 356.68 393.092 351.063L378.152 349.715ZM481.974 315.666C478.324 326.269 468.722 335.453 452.576 340.893C436.404 346.342 414.18 347.793 386.92 343.002L384.324 357.776C413.292 362.867 438.179 361.573 457.366 355.108C476.579 348.635 490.584 336.736 496.157 320.548L481.974 315.666ZM377.109 370.63C376.041 378.107 375.047 388.01 373.925 398.608C372.794 409.301 371.517 420.855 369.868 431.957C368.214 443.092 366.216 453.545 363.692 462.072C361.072 470.924 358.23 476.441 355.629 478.931L366.003 489.766C371.637 484.371 375.356 475.514 378.075 466.329C380.891 456.817 383.011 445.568 384.705 434.161C386.405 422.72 387.709 410.893 388.842 400.187C389.985 389.389 390.94 379.878 391.958 372.751L377.109 370.63ZM194.464 171.336C196.953 170.961 198.461 170.86 199.964 170.987C201.488 171.116 203.391 171.515 206.521 172.581L211.357 158.382C207.595 157.1 204.417 156.31 201.225 156.04C198.013 155.769 195.17 156.061 192.23 156.503L194.464 171.336ZM203.028 160.865C202.641 161.36 202.463 161.503 202.444 161.518C202.432 161.528 202.423 161.534 202.402 161.547C202.375 161.563 202.307 161.601 202.163 161.666C201.796 161.832 201.334 162.002 200.297 162.379C199.339 162.727 198.103 163.179 196.595 163.811L202.397 177.644C203.554 177.159 204.509 176.808 205.42 176.477C206.251 176.175 207.335 175.789 208.342 175.334C210.9 174.178 212.873 172.629 214.85 170.097L203.028 160.865ZM204.538 165.176C203.394 164.136 202.396 163.374 201.607 162.794C200.679 162.113 200.488 161.991 200.246 161.787C200.175 161.727 200.383 161.895 200.585 162.228C200.766 162.528 200.747 162.642 200.664 162.274L186.03 165.566C186.367 167.064 186.886 168.562 187.749 169.989C188.631 171.449 189.663 172.485 190.584 173.26C191.334 173.892 192.302 174.572 192.727 174.883C193.289 175.297 193.836 175.719 194.454 176.28L204.538 165.176ZM377.573 166.362C379.69 165.386 380.9 165.01 381.955 164.847C383.005 164.685 384.355 164.666 386.799 165.005L388.857 150.146C385.628 149.699 382.692 149.556 379.668 150.023C376.648 150.489 373.997 151.493 371.291 152.741L377.573 166.362ZM381.448 153.631C381.038 154.296 380.849 154.44 380.76 154.51C380.547 154.679 380.108 154.967 378.748 155.619L385.228 169.147C386.766 168.41 388.482 167.531 390.082 166.262C391.807 164.894 393.088 163.329 394.207 161.519L381.448 153.631ZM382.306 154.889C380.867 154.828 380.533 154.719 380.451 154.691C380.43 154.683 380.37 154.662 380.233 154.577C380.077 154.479 379.803 154.285 379.368 153.905L369.496 165.199C371.254 166.736 373.149 168.025 375.487 168.845C377.723 169.629 379.866 169.799 381.67 169.876L382.306 154.889Z" fill="white"/>
</svg>
